<svg xmlns="http://www.w3.org/2000/svg" xmlns:xlink="http://www.w3.org/1999/xlink" width="500" zoomAndPan="magnify" viewBox="0 0 375 374.999991" height="500" preserveAspectRatio="xMidYMid meet" version="1.0"><defs><g/><clipPath id="782445c2b6"><path d="M 0 69.164062 L 374 69.164062 L 374 110 L 0 110 Z M 0 69.164062 " clip-rule="nonzero"/></clipPath><clipPath id="4471f6d5bf"><path d="M 0 265 L 374 265 L 374 306.164062 L 0 306.164062 Z M 0 265 " clip-rule="nonzero"/></clipPath></defs><rect x="-37.5" width="450" fill="#ffffff" y="-37.499999" height="449.999989" fill-opacity="1"/><rect x="-37.5" width="450" fill="#045eab" y="-37.499999" height="449.999989" fill-opacity="1"/><path fill="#005daa" d="M 373.875 245.71875 C 373.875 253.964844 367.207031 260.652344 358.972656 260.652344 L 14.972656 260.652344 C 6.742188 260.652344 0.0703125 253.964844 0.0703125 245.71875 L 0.0703125 129.664062 C 0.0703125 121.414062 6.742188 114.730469 14.972656 114.730469 L 358.972656 114.730469 C 367.207031 114.730469 373.875 121.414062 373.875 129.664062 Z M 373.875 245.71875 " fill-opacity="1" fill-rule="nonzero"/><path fill="#ffffff" d="M 8.027344 155.976562 C 7.363281 158.601562 9.535156 158.601562 9.535156 158.601562 C 7.363281 158.601562 45.238281 158.601562 45.238281 158.601562 C 48.1875 158.601562 52.535156 162.714844 50.40625 168.765625 L 19.0625 249.921875 L 69.050781 249.921875 L 99.480469 168.492188 C 103.375 158.601562 103.300781 158.179688 118.617188 158.152344 L 259.121094 158.152344 C 263.929688 158.152344 264.386719 158.03125 266.457031 161.417969 L 296.707031 211.734375 C 297.726562 214.394531 297.105469 215.847656 293.796875 215.847656 L 264.027344 215.847656 L 251.410156 249.921875 L 362.925781 249.902344 C 365.378906 249.851562 366.652344 247.582031 365.757812 244.925781 L 304.441406 137.6875 C 301.457031 133.292969 296.902344 130.804688 290.28125 131.058594 L 285.804688 131.0625 L 20.480469 131.050781 L 16.597656 131.050781 Z M 8.027344 155.976562 " fill-opacity="1" fill-rule="nonzero"/><path fill="#ffffff" d="M 211.265625 249.921875 C 211.265625 249.921875 215.421875 249.921875 220.113281 240.117188 C 223.351562 233.339844 231.621094 210.25 233.359375 203.402344 C 236.566406 190.761719 219.628906 183.136719 219.628906 183.136719 C 218.226562 182.433594 217.808594 181.78125 218.0625 180.976562 L 225.089844 162.730469 L 255.710938 162.730469 C 257.957031 162.976562 258.460938 163.226562 260.402344 165.351562 L 269.558594 179.4375 C 270.1875 180.476562 270.0625 181.058594 269.574219 182.328125 L 244.539062 249.921875 Z M 211.265625 249.921875 " fill-opacity="1" fill-rule="nonzero"/><path fill="#ffffff" d="M 190.714844 249.90625 C 190.714844 249.90625 196.90625 249.800781 197.910156 249.71875 C 203.25 249.289062 206.394531 248.234375 210.496094 243.28125 C 214.957031 237.894531 225.867188 209.292969 226.351562 202.652344 C 226.855469 195.6875 222.972656 191.691406 217.65625 188.648438 C 212.9375 185.953125 178.019531 171.90625 176.828125 171.378906 C 175.636719 170.855469 174.878906 169.742188 174.566406 167.953125 C 174.257812 166.164062 175.015625 163.207031 175.015625 163.207031 L 119.957031 163.210938 C 119.957031 163.210938 117.09375 172.871094 116.71875 178.644531 C 116.429688 183.136719 119.097656 184.898438 120.726562 186.054688 C 122.859375 187.574219 174.324219 209.691406 176.050781 210.738281 C 178.417969 212.179688 180.476562 216.960938 173.570312 216.960938 L 88.253906 216.964844 L 75.933594 249.90625 Z M 190.714844 249.90625 " fill-opacity="1" fill-rule="nonzero"/><g clip-path="url(#782445c2b6)"><path fill="#ee3524" d="M 373.878906 99.1875 C 373.878906 104.996094 369.175781 109.710938 363.378906 109.710938 L 10.570312 109.710938 C 4.769531 109.710938 0.0664062 104.996094 0.0664062 99.1875 L 0.0664062 79.6875 C 0.0664062 73.875 4.769531 69.164062 10.570312 69.164062 L 363.378906 69.164062 C 369.175781 69.164062 373.878906 73.875 373.878906 79.6875 Z M 373.878906 99.1875 " fill-opacity="1" fill-rule="nonzero"/></g><g clip-path="url(#4471f6d5bf)"><path fill="#ee3524" d="M 373.878906 295.695312 C 373.878906 301.507812 369.175781 306.21875 363.378906 306.21875 L 10.570312 306.21875 C 4.769531 306.21875 0.0664062 301.507812 0.0664062 295.695312 L 0.0664062 276.195312 C 0.0664062 270.382812 4.769531 265.671875 10.570312 265.671875 L 363.378906 265.671875 C 369.175781 265.671875 373.878906 270.382812 373.878906 276.195312 Z M 373.878906 295.695312 " fill-opacity="1" fill-rule="nonzero"/></g><path fill="#ffffff" d="M 15.46875 281.453125 L 15.46875 293.285156 L 12.714844 293.285156 L 12.714844 281.453125 L 9.957031 281.453125 L 9.957031 278.980469 L 18.246094 278.980469 L 18.246094 281.453125 Z M 15.46875 281.453125 " fill-opacity="1" fill-rule="nonzero"/><path fill="#ffffff" d="M 19.613281 293.285156 L 19.613281 278.980469 L 27.621094 278.980469 L 27.621094 281.453125 L 22.371094 281.453125 L 22.371094 284.953125 L 27.398438 284.953125 L 27.398438 287.429688 L 22.371094 287.429688 L 22.371094 290.8125 L 27.621094 290.8125 L 27.621094 293.285156 Z M 19.613281 293.285156 " fill-opacity="1" fill-rule="nonzero"/><path fill="#ffffff" d="M 40.820312 283.058594 C 39.773438 281.878906 38.484375 281.164062 36.835938 281.164062 C 34.097656 281.164062 31.984375 283.578125 31.984375 286.113281 C 31.984375 288.683594 34.179688 291.101562 36.933594 291.101562 C 38.546875 291.101562 39.632812 290.40625 40.675781 289.300781 L 43.875 289.300781 C 42.730469 291.890625 39.894531 293.574219 36.996094 293.574219 C 32.730469 293.574219 29.230469 290.152344 29.230469 286.074219 C 29.230469 282.03125 32.730469 278.6875 36.933594 278.6875 C 39.972656 278.6875 42.730469 280.371094 43.957031 283.058594 Z M 40.820312 283.058594 " fill-opacity="1" fill-rule="nonzero"/><path fill="#ffffff" d="M 53.453125 293.285156 L 53.453125 287.273438 L 48.121094 287.273438 L 48.121094 293.285156 L 45.363281 293.285156 L 45.363281 278.980469 L 48.121094 278.980469 L 48.121094 284.796875 L 53.453125 284.796875 L 53.453125 278.980469 L 56.207031 278.980469 L 56.207031 293.285156 Z M 53.453125 293.285156 " fill-opacity="1" fill-rule="nonzero"/><path fill="#ffffff" d="M 67.332031 293.285156 L 61.117188 282.882812 L 61.074219 282.882812 L 61.074219 293.285156 L 58.320312 293.285156 L 58.320312 278.980469 L 61.457031 278.980469 L 67.613281 289.378906 L 67.652344 289.378906 L 67.652344 278.980469 L 70.410156 278.980469 L 70.410156 293.285156 Z M 67.332031 293.285156 " fill-opacity="1" fill-rule="nonzero"/><path fill="#ffffff" d="M 79.945312 293.574219 C 75.679688 293.574219 72.160156 290.289062 72.160156 286.171875 C 72.160156 282.015625 75.640625 278.6875 79.945312 278.6875 C 84.253906 278.6875 87.734375 282.015625 87.734375 286.171875 C 87.734375 290.289062 84.210938 293.574219 79.945312 293.574219 Z M 79.945312 281.164062 C 77.089844 281.164062 74.917969 283.464844 74.917969 286.152344 C 74.917969 288.820312 77.128906 291.101562 79.945312 291.101562 C 82.765625 291.101562 84.976562 288.820312 84.976562 286.152344 C 84.976562 283.464844 82.804688 281.164062 79.945312 281.164062 Z M 79.945312 281.164062 " fill-opacity="1" fill-rule="nonzero"/><path fill="#ffffff" d="M 89.542969 293.285156 L 89.542969 278.980469 L 92.300781 278.980469 L 92.300781 290.808594 L 96.847656 290.808594 L 96.847656 293.285156 Z M 89.542969 293.285156 " fill-opacity="1" fill-rule="nonzero"/><path fill="#ffffff" d="M 104.109375 293.574219 C 99.84375 293.574219 96.324219 290.289062 96.324219 286.171875 C 96.324219 282.015625 99.804688 278.6875 104.109375 278.6875 C 108.414062 278.6875 111.894531 282.015625 111.894531 286.171875 C 111.894531 290.289062 108.375 293.574219 104.109375 293.574219 Z M 104.109375 281.164062 C 101.25 281.164062 99.078125 283.464844 99.078125 286.152344 C 99.078125 288.820312 101.292969 291.101562 104.109375 291.101562 C 106.925781 291.101562 109.136719 288.820312 109.136719 286.152344 C 109.136719 283.464844 106.964844 281.164062 104.109375 281.164062 Z M 104.109375 281.164062 " fill-opacity="1" fill-rule="nonzero"/><path fill="#ffffff" d="M 121.207031 293.574219 C 116.882812 293.574219 113.199219 290.367188 113.199219 286.132812 C 113.199219 281.976562 116.863281 278.6875 121.128906 278.6875 C 124.066406 278.6875 127.324219 280.429688 128.351562 283.171875 L 125.050781 283.171875 C 124.1875 281.898438 122.636719 281.164062 121.066406 281.164062 C 118.191406 281.164062 115.957031 283.40625 115.957031 286.152344 C 115.957031 286.808594 116.117188 287.484375 116.378906 288.085938 C 117.222656 290.015625 119.035156 291.101562 121.207031 291.101562 C 123.097656 291.101562 124.769531 290.09375 125.613281 288.472656 L 119.378906 288.472656 L 119.378906 285.996094 L 129.09375 285.996094 L 129.09375 286.304688 C 129.09375 290.386719 125.371094 293.574219 121.207031 293.574219 Z M 121.207031 293.574219 " fill-opacity="1" fill-rule="nonzero"/><path fill="#ffffff" d="M 135.652344 288.007812 L 135.652344 293.285156 L 132.898438 293.285156 L 132.898438 288.007812 L 128.007812 278.980469 L 131.027344 278.980469 L 134.265625 285.550781 L 137.523438 278.980469 L 140.5625 278.980469 Z M 135.652344 288.007812 " fill-opacity="1" fill-rule="nonzero"/><path fill="#ffffff" d="M 152.25 293.574219 C 149.613281 293.574219 147.523438 291.71875 147.402344 289.1875 L 150.296875 289.1875 C 150.398438 290.269531 151.082031 291.097656 152.269531 291.097656 C 153.335938 291.097656 154.320312 290.386719 154.320312 289.300781 C 154.320312 287.679688 152.792969 287.367188 151.484375 286.886719 C 151.023438 286.710938 150.582031 286.554688 150.136719 286.34375 C 148.628906 285.589844 147.945312 284.410156 147.945312 282.765625 C 147.945312 280.410156 149.875 278.6875 152.308594 278.6875 C 154.726562 278.6875 156.59375 280.445312 156.714844 282.765625 L 153.898438 282.765625 C 153.820312 281.800781 153.277344 281.164062 152.230469 281.164062 C 151.363281 281.164062 150.703125 281.761719 150.703125 282.613281 C 150.703125 283.984375 152.070312 284.257812 153.175781 284.605469 C 155.429688 285.320312 157.078125 286.5 157.078125 289.011719 C 157.078125 291.71875 155.027344 293.574219 152.25 293.574219 Z M 152.25 293.574219 " fill-opacity="1" fill-rule="nonzero"/><path fill="#ffffff" d="M 162.953125 281.453125 L 162.953125 293.285156 L 160.195312 293.285156 L 160.195312 281.453125 L 157.441406 281.453125 L 157.441406 278.980469 L 165.730469 278.980469 L 165.730469 281.453125 Z M 162.953125 281.453125 " fill-opacity="1" fill-rule="nonzero"/><path fill="#ffffff" d="M 176.773438 291.449219 C 175.765625 292.820312 174.039062 293.574219 172.328125 293.574219 C 170.65625 293.574219 168.90625 292.839844 167.902344 291.527344 C 167.15625 290.578125 166.976562 289.226562 166.976562 288.066406 L 166.976562 278.980469 L 169.730469 278.980469 L 169.730469 288.066406 C 169.730469 289.730469 170.292969 291.101562 172.308594 291.101562 C 174.320312 291.101562 174.882812 289.730469 174.882812 288.066406 L 174.882812 278.980469 L 177.636719 278.980469 L 177.636719 288.066406 C 177.636719 289.226562 177.476562 290.460938 176.773438 291.449219 Z M 176.773438 291.449219 " fill-opacity="1" fill-rule="nonzero"/><path fill="#ffffff" d="M 188.503906 292.355469 C 187.074219 293.109375 185.164062 293.285156 183.554688 293.285156 L 180.113281 293.285156 L 180.113281 278.980469 L 183.492188 278.980469 C 185.566406 278.980469 187.980469 279.269531 189.609375 280.640625 C 191.199219 281.996094 192.0625 284.140625 192.0625 286.171875 C 192.0625 288.605469 190.777344 291.160156 188.503906 292.355469 Z M 187.71875 282.652344 C 186.328125 281.472656 184.621094 281.453125 182.871094 281.453125 L 182.871094 290.808594 L 183.453125 290.808594 C 184.78125 290.808594 185.886719 290.753906 187.074219 290.113281 C 188.523438 289.339844 189.308594 287.738281 189.308594 286.171875 C 189.308594 284.875 188.742188 283.523438 187.71875 282.652344 Z M 187.71875 282.652344 " fill-opacity="1" fill-rule="nonzero"/><path fill="#ffffff" d="M 193.851562 293.285156 L 193.851562 278.980469 L 201.859375 278.980469 L 201.859375 281.453125 L 196.609375 281.453125 L 196.609375 284.953125 L 201.640625 284.953125 L 201.640625 287.429688 L 196.609375 287.429688 L 196.609375 290.8125 L 201.859375 290.8125 L 201.859375 293.285156 Z M 193.851562 293.285156 " fill-opacity="1" fill-rule="nonzero"/><path fill="#ffffff" d="M 213.207031 293.285156 L 206.992188 282.882812 L 206.949219 282.882812 L 206.949219 293.285156 L 204.195312 293.285156 L 204.195312 278.980469 L 207.332031 278.980469 L 213.488281 289.378906 L 213.53125 289.378906 L 213.53125 278.980469 L 216.285156 278.980469 L 216.285156 293.285156 Z M 213.207031 293.285156 " fill-opacity="1" fill-rule="nonzero"/><path fill="#ffffff" d="M 223.40625 281.453125 L 223.40625 293.285156 L 220.652344 293.285156 L 220.652344 281.453125 L 217.894531 281.453125 L 217.894531 278.980469 L 226.183594 278.980469 L 226.183594 281.453125 Z M 223.40625 281.453125 " fill-opacity="1" fill-rule="nonzero"/><path fill="#ffffff" d="M 244.550781 293.285156 L 242.960938 289.59375 L 237.628906 289.59375 L 236.039062 293.285156 L 233 293.285156 L 239.199219 278.980469 L 241.351562 278.980469 L 247.585938 293.285156 Z M 240.285156 282.710938 L 240.246094 282.710938 L 238.554688 287.097656 L 241.976562 287.097656 Z M 240.285156 282.710938 " fill-opacity="1" fill-rule="nonzero"/><path fill="#ffffff" d="M 252.132812 293.574219 C 249.5 293.574219 247.40625 291.71875 247.285156 289.1875 L 250.183594 289.1875 C 250.285156 290.269531 250.96875 291.097656 252.15625 291.097656 C 253.222656 291.097656 254.207031 290.386719 254.207031 289.300781 C 254.207031 287.679688 252.679688 287.367188 251.371094 286.886719 C 250.90625 286.710938 250.464844 286.554688 250.023438 286.34375 C 248.515625 285.589844 247.828125 284.410156 247.828125 282.765625 C 247.828125 280.410156 249.761719 278.6875 252.195312 278.6875 C 254.609375 278.6875 256.480469 280.445312 256.601562 282.765625 L 253.785156 282.765625 C 253.703125 281.800781 253.160156 281.164062 252.117188 281.164062 C 251.25 281.164062 250.585938 281.761719 250.585938 282.613281 C 250.585938 283.984375 251.953125 284.257812 253.0625 284.605469 C 255.3125 285.320312 256.964844 286.5 256.964844 289.011719 C 256.964844 291.71875 254.910156 293.574219 252.132812 293.574219 Z M 252.132812 293.574219 " fill-opacity="1" fill-rule="nonzero"/><path fill="#ffffff" d="M 262.695312 293.574219 C 260.0625 293.574219 257.96875 291.71875 257.847656 289.1875 L 260.742188 289.1875 C 260.84375 290.269531 261.53125 291.097656 262.714844 291.097656 C 263.78125 291.097656 264.769531 290.386719 264.769531 289.300781 C 264.769531 287.679688 263.238281 287.367188 261.929688 286.886719 C 261.46875 286.710938 261.027344 286.554688 260.582031 286.34375 C 259.074219 285.589844 258.390625 284.410156 258.390625 282.765625 C 258.390625 280.410156 260.320312 278.6875 262.757812 278.6875 C 265.171875 278.6875 267.042969 280.445312 267.164062 282.765625 L 264.347656 282.765625 C 264.265625 281.800781 263.722656 281.164062 262.675781 281.164062 C 261.8125 281.164062 261.148438 281.761719 261.148438 282.613281 C 261.148438 283.984375 262.515625 284.257812 263.621094 284.605469 C 265.875 285.320312 267.523438 286.5 267.523438 289.011719 C 267.523438 291.71875 265.472656 293.574219 262.695312 293.574219 Z M 262.695312 293.574219 " fill-opacity="1" fill-rule="nonzero"/><path fill="#ffffff" d="M 276.214844 293.574219 C 271.949219 293.574219 268.429688 290.289062 268.429688 286.171875 C 268.429688 282.015625 271.910156 278.6875 276.214844 278.6875 C 280.523438 278.6875 284 282.015625 284 286.171875 C 284 290.289062 280.480469 293.574219 276.214844 293.574219 Z M 276.214844 281.164062 C 273.359375 281.164062 271.1875 283.464844 271.1875 286.152344 C 271.1875 288.820312 273.398438 291.101562 276.214844 291.101562 C 279.035156 291.101562 281.246094 288.820312 281.246094 286.152344 C 281.246094 283.464844 279.074219 281.164062 276.214844 281.164062 Z M 276.214844 281.164062 " fill-opacity="1" fill-rule="nonzero"/><path fill="#ffffff" d="M 296.636719 283.058594 C 295.589844 281.878906 294.300781 281.164062 292.652344 281.164062 C 289.914062 281.164062 287.804688 283.578125 287.804688 286.113281 C 287.804688 288.683594 289.996094 291.101562 292.753906 291.101562 C 294.363281 291.101562 295.449219 290.40625 296.496094 289.300781 L 299.691406 289.300781 C 298.546875 291.890625 295.710938 293.574219 292.8125 293.574219 C 288.546875 293.574219 285.046875 290.152344 285.046875 286.074219 C 285.046875 282.03125 288.546875 278.6875 292.75 278.6875 C 295.789062 278.6875 298.546875 280.371094 299.773438 283.058594 Z M 296.636719 283.058594 " fill-opacity="1" fill-rule="nonzero"/><path fill="#ffffff" d="M 301.203125 278.980469 L 303.957031 278.980469 L 303.957031 293.285156 L 301.203125 293.285156 Z M 301.203125 278.980469 " fill-opacity="1" fill-rule="nonzero"/><path fill="#ffffff" d="M 316.773438 293.285156 L 315.183594 289.59375 L 309.851562 289.59375 L 308.261719 293.285156 L 305.222656 293.285156 L 311.421875 278.980469 L 313.574219 278.980469 L 319.808594 293.285156 Z M 312.507812 282.710938 L 312.46875 282.710938 L 310.777344 287.097656 L 314.199219 287.097656 Z M 312.507812 282.710938 " fill-opacity="1" fill-rule="nonzero"/><path fill="#ffffff" d="M 323.875 281.453125 L 323.875 293.285156 L 321.117188 293.285156 L 321.117188 281.453125 L 318.363281 281.453125 L 318.363281 278.980469 L 326.652344 278.980469 L 326.652344 281.453125 Z M 323.875 281.453125 " fill-opacity="1" fill-rule="nonzero"/><path fill="#ffffff" d="M 328.238281 278.980469 L 330.996094 278.980469 L 330.996094 293.285156 L 328.238281 293.285156 Z M 328.238281 278.980469 " fill-opacity="1" fill-rule="nonzero"/><path fill="#ffffff" d="M 340.574219 293.574219 C 336.308594 293.574219 332.785156 290.289062 332.785156 286.171875 C 332.785156 282.015625 336.265625 278.6875 340.574219 278.6875 C 344.878906 278.6875 348.359375 282.015625 348.359375 286.171875 C 348.359375 290.289062 344.839844 293.574219 340.574219 293.574219 Z M 340.574219 281.164062 C 337.714844 281.164062 335.542969 283.464844 335.542969 286.152344 C 335.542969 288.820312 337.753906 291.101562 340.574219 291.101562 C 343.390625 291.101562 345.601562 288.820312 345.601562 286.152344 C 345.601562 283.464844 343.429688 281.164062 340.574219 281.164062 Z M 340.574219 281.164062 " fill-opacity="1" fill-rule="nonzero"/><path fill="#ffffff" d="M 359.140625 293.285156 L 352.925781 282.882812 L 352.886719 282.882812 L 352.886719 293.285156 L 350.128906 293.285156 L 350.128906 278.980469 L 353.265625 278.980469 L 359.425781 289.378906 L 359.464844 289.378906 L 359.464844 278.980469 L 362.21875 278.980469 L 362.21875 293.285156 Z M 359.140625 293.285156 " fill-opacity="1" fill-rule="nonzero"/><g fill="#ffffff" fill-opacity="1"><g transform="translate(22.554682, 97.411026)"><g><path d="M 14.625 -17.625 L 14.625 0 L 11.71875 0 L 11.71875 -1.71875 C 10.519531 -0.363281 9.0625 0.3125 7.34375 0.3125 C 5.46875 0.3125 3.894531 -0.351562 2.625 -1.6875 C 1.351562 -3.03125 0.71875 -4.675781 0.71875 -6.625 C 0.71875 -8.601562 1.359375 -10.273438 2.640625 -11.640625 C 3.921875 -13.003906 5.484375 -13.6875 7.328125 -13.6875 C 9.078125 -13.6875 10.453125 -13.140625 11.453125 -12.046875 L 11.453125 -17.625 Z M 7.78125 -10.78125 C 6.695312 -10.78125 5.78125 -10.394531 5.03125 -9.625 C 4.28125 -8.851562 3.90625 -7.90625 3.90625 -6.78125 C 3.90625 -5.601562 4.28125 -4.609375 5.03125 -3.796875 C 5.789062 -2.992188 6.726562 -2.59375 7.84375 -2.59375 C 8.925781 -2.59375 9.835938 -2.988281 10.578125 -3.78125 C 11.316406 -4.570312 11.6875 -5.535156 11.6875 -6.671875 C 11.6875 -7.835938 11.3125 -8.8125 10.5625 -9.59375 C 9.820312 -10.382812 8.894531 -10.78125 7.78125 -10.78125 Z M 7.78125 -10.78125 "/></g></g></g><g fill="#ffffff" fill-opacity="1"><g transform="translate(38.2931, 97.411026)"><g><path d="M 13.046875 -13.21875 L 13.046875 0 L 10.109375 0 L 10.109375 -1.265625 C 9.523438 -0.671875 8.945312 -0.257812 8.375 -0.03125 C 7.800781 0.195312 7.117188 0.3125 6.328125 0.3125 C 4.546875 0.3125 3.203125 -0.335938 2.296875 -1.640625 C 1.921875 -2.203125 1.65625 -2.8125 1.5 -3.46875 C 1.351562 -4.125 1.28125 -5.007812 1.28125 -6.125 L 1.28125 -13.21875 L 4.453125 -13.21875 L 4.453125 -6.75 C 4.453125 -5.082031 4.671875 -3.976562 5.109375 -3.4375 C 5.515625 -2.875 6.132812 -2.59375 6.96875 -2.59375 C 8.09375 -2.59375 8.894531 -3 9.375 -3.8125 C 9.707031 -4.320312 9.875 -5.378906 9.875 -6.984375 L 9.875 -13.21875 Z M 13.046875 -13.21875 "/></g></g></g><g fill="#ffffff" fill-opacity="1"><g transform="translate(52.600754, 97.411026)"><g><path d="M 1.625 0 L 1.625 -17.625 L 5.984375 -17.625 C 8.085938 -17.625 9.59375 -17.351562 10.5 -16.8125 C 12.082031 -15.84375 12.875 -14.300781 12.875 -12.1875 C 12.875 -11.164062 12.664062 -10.238281 12.25 -9.40625 C 11.84375 -8.570312 11.28125 -7.929688 10.5625 -7.484375 C 10.070312 -7.179688 9.492188 -6.972656 8.828125 -6.859375 C 8.160156 -6.753906 7.195312 -6.703125 5.9375 -6.703125 L 4.890625 -6.703125 L 4.890625 0 Z M 4.890625 -9.828125 L 5.84375 -9.828125 C 7.113281 -9.828125 8.003906 -9.960938 8.515625 -10.234375 C 9.234375 -10.628906 9.59375 -11.265625 9.59375 -12.140625 C 9.59375 -12.691406 9.457031 -13.160156 9.1875 -13.546875 C 8.914062 -13.941406 8.539062 -14.203125 8.0625 -14.328125 C 7.570312 -14.441406 6.878906 -14.5 5.984375 -14.5 L 4.890625 -14.5 Z M 4.890625 -9.828125 "/></g></g></g><g fill="#ffffff" fill-opacity="1"><g transform="translate(65.954566, 97.411026)"><g><path d="M 7.703125 -13.53125 C 9.691406 -13.53125 11.363281 -12.851562 12.71875 -11.5 C 14.082031 -10.144531 14.765625 -8.484375 14.765625 -6.515625 C 14.765625 -4.648438 14.070312 -3.046875 12.6875 -1.703125 C 11.300781 -0.359375 9.648438 0.3125 7.734375 0.3125 C 5.785156 0.3125 4.128906 -0.363281 2.765625 -1.71875 C 1.398438 -3.070312 0.71875 -4.703125 0.71875 -6.609375 C 0.71875 -8.503906 1.398438 -10.128906 2.765625 -11.484375 C 4.128906 -12.847656 5.773438 -13.53125 7.703125 -13.53125 Z M 7.734375 -10.609375 C 6.691406 -10.609375 5.789062 -10.21875 5.03125 -9.4375 C 4.28125 -8.664062 3.90625 -7.738281 3.90625 -6.65625 C 3.90625 -5.53125 4.28125 -4.570312 5.03125 -3.78125 C 5.78125 -2.988281 6.6875 -2.59375 7.75 -2.59375 C 8.800781 -2.59375 9.695312 -2.984375 10.4375 -3.765625 C 11.1875 -4.546875 11.5625 -5.492188 11.5625 -6.609375 C 11.5625 -7.703125 11.1875 -8.640625 10.4375 -9.421875 C 9.695312 -10.210938 8.796875 -10.609375 7.734375 -10.609375 Z M 7.734375 -10.609375 "/></g></g></g><g fill="#ffffff" fill-opacity="1"><g transform="translate(81.216062, 97.411026)"><g><path d="M 1.28125 0 L 1.28125 -13.21875 L 4.21875 -13.21875 L 4.21875 -11.953125 C 5.320312 -13.003906 6.5625 -13.53125 7.9375 -13.53125 C 9.820312 -13.53125 11.195312 -12.890625 12.0625 -11.609375 C 12.414062 -11.109375 12.664062 -10.519531 12.8125 -9.84375 C 12.957031 -9.175781 13.03125 -8.253906 13.03125 -7.078125 L 13.03125 0 L 9.84375 0 L 9.84375 -6.46875 C 9.84375 -8.113281 9.640625 -9.21875 9.234375 -9.78125 C 8.804688 -10.332031 8.171875 -10.609375 7.328125 -10.609375 C 6.273438 -10.609375 5.492188 -10.203125 4.984375 -9.390625 C 4.628906 -8.835938 4.453125 -7.78125 4.453125 -6.21875 L 4.453125 0 Z M 1.28125 0 "/></g></g></g><g fill="#ffffff" fill-opacity="1"><g transform="translate(95.523717, 97.411026)"><g><path d="M 1.765625 0 L 1.765625 -10.328125 L 0.21875 -10.328125 L 0.21875 -13.21875 L 1.765625 -13.21875 L 1.765625 -17.625 L 4.9375 -17.625 L 4.9375 -13.21875 L 6.84375 -13.21875 L 6.84375 -10.328125 L 4.9375 -10.328125 L 4.9375 0 Z M 1.765625 0 "/></g></g></g><g fill="#ffffff" fill-opacity="1"><g transform="translate(102.677544, 97.411026)"><g/></g></g><g fill="#ffffff" fill-opacity="1"><g transform="translate(113.432129, 97.411026)"><g><path d="M 1.625 0 L 1.625 -17.625 L 6.109375 -17.625 L 10.859375 -4.265625 L 15.546875 -17.625 L 20.03125 -17.625 L 20.03125 0 L 16.765625 0 L 16.765625 -13.21875 L 12.171875 0 L 9.5 0 L 4.890625 -13.21875 L 4.890625 0 Z M 1.625 0 "/></g></g></g><g fill="#ffffff" fill-opacity="1"><g transform="translate(134.893611, 97.411026)"><g><path d="M 14.671875 -13.21875 L 14.671875 0 L 11.765625 0 L 11.765625 -1.71875 C 11.128906 -1 10.46875 -0.476562 9.78125 -0.15625 C 9.09375 0.15625 8.289062 0.3125 7.375 0.3125 C 5.445312 0.3125 3.851562 -0.332031 2.59375 -1.625 C 1.34375 -2.925781 0.71875 -4.570312 0.71875 -6.5625 C 0.71875 -8.582031 1.347656 -10.25 2.609375 -11.5625 C 3.878906 -12.875 5.488281 -13.53125 7.4375 -13.53125 C 9.269531 -13.53125 10.710938 -12.835938 11.765625 -11.453125 L 11.765625 -13.21875 Z M 10.5625 -9.46875 C 9.832031 -10.226562 8.898438 -10.609375 7.765625 -10.609375 C 6.640625 -10.609375 5.710938 -10.222656 4.984375 -9.453125 C 4.265625 -8.679688 3.90625 -7.691406 3.90625 -6.484375 C 3.90625 -5.328125 4.265625 -4.390625 4.984375 -3.671875 C 5.710938 -2.953125 6.660156 -2.59375 7.828125 -2.59375 C 9.078125 -2.59375 10.035156 -2.992188 10.703125 -3.796875 C 11.347656 -4.535156 11.671875 -5.441406 11.671875 -6.515625 C 11.671875 -7.722656 11.300781 -8.707031 10.5625 -9.46875 Z M 10.5625 -9.46875 "/></g></g></g><g fill="#ffffff" fill-opacity="1"><g transform="translate(150.632028, 97.411026)"><g><path d="M 1.28125 0 L 1.28125 -13.21875 L 4.21875 -13.21875 L 4.21875 -11.953125 C 5.320312 -13.003906 6.5625 -13.53125 7.9375 -13.53125 C 9.820312 -13.53125 11.195312 -12.890625 12.0625 -11.609375 C 12.414062 -11.109375 12.664062 -10.519531 12.8125 -9.84375 C 12.957031 -9.175781 13.03125 -8.253906 13.03125 -7.078125 L 13.03125 0 L 9.84375 0 L 9.84375 -6.46875 C 9.84375 -8.113281 9.640625 -9.21875 9.234375 -9.78125 C 8.804688 -10.332031 8.171875 -10.609375 7.328125 -10.609375 C 6.273438 -10.609375 5.492188 -10.203125 4.984375 -9.390625 C 4.628906 -8.835938 4.453125 -7.78125 4.453125 -6.21875 L 4.453125 0 Z M 1.28125 0 "/></g></g></g><g fill="#ffffff" fill-opacity="1"><g transform="translate(164.939683, 97.411026)"><g><path d="M 13.046875 -13.21875 L 13.046875 0 L 10.109375 0 L 10.109375 -1.265625 C 9.523438 -0.671875 8.945312 -0.257812 8.375 -0.03125 C 7.800781 0.195312 7.117188 0.3125 6.328125 0.3125 C 4.546875 0.3125 3.203125 -0.335938 2.296875 -1.640625 C 1.921875 -2.203125 1.65625 -2.8125 1.5 -3.46875 C 1.351562 -4.125 1.28125 -5.007812 1.28125 -6.125 L 1.28125 -13.21875 L 4.453125 -13.21875 L 4.453125 -6.75 C 4.453125 -5.082031 4.671875 -3.976562 5.109375 -3.4375 C 5.515625 -2.875 6.132812 -2.59375 6.96875 -2.59375 C 8.09375 -2.59375 8.894531 -3 9.375 -3.8125 C 9.707031 -4.320312 9.875 -5.378906 9.875 -6.984375 L 9.875 -13.21875 Z M 13.046875 -13.21875 "/></g></g></g><g fill="#ffffff" fill-opacity="1"><g transform="translate(179.247337, 97.411026)"><g><path d="M 14.671875 -13.21875 L 14.671875 0 L 11.765625 0 L 11.765625 -1.71875 C 11.128906 -1 10.46875 -0.476562 9.78125 -0.15625 C 9.09375 0.15625 8.289062 0.3125 7.375 0.3125 C 5.445312 0.3125 3.851562 -0.332031 2.59375 -1.625 C 1.34375 -2.925781 0.71875 -4.570312 0.71875 -6.5625 C 0.71875 -8.582031 1.347656 -10.25 2.609375 -11.5625 C 3.878906 -12.875 5.488281 -13.53125 7.4375 -13.53125 C 9.269531 -13.53125 10.710938 -12.835938 11.765625 -11.453125 L 11.765625 -13.21875 Z M 10.5625 -9.46875 C 9.832031 -10.226562 8.898438 -10.609375 7.765625 -10.609375 C 6.640625 -10.609375 5.710938 -10.222656 4.984375 -9.453125 C 4.265625 -8.679688 3.90625 -7.691406 3.90625 -6.484375 C 3.90625 -5.328125 4.265625 -4.390625 4.984375 -3.671875 C 5.710938 -2.953125 6.660156 -2.59375 7.828125 -2.59375 C 9.078125 -2.59375 10.035156 -2.992188 10.703125 -3.796875 C 11.347656 -4.535156 11.671875 -5.441406 11.671875 -6.515625 C 11.671875 -7.722656 11.300781 -8.707031 10.5625 -9.46875 Z M 10.5625 -9.46875 "/></g></g></g><g fill="#ffffff" fill-opacity="1"><g transform="translate(194.985755, 97.411026)"><g><path d="M 1.28125 0 L 1.28125 -17.625 L 4.453125 -17.625 L 4.453125 0 Z M 1.28125 0 "/></g></g></g><g fill="#ffffff" fill-opacity="1"><g transform="translate(200.708819, 97.411026)"><g/></g></g><g fill="#ffffff" fill-opacity="1"><g transform="translate(211.463403, 97.411026)"><g><path d="M 1.625 0 L 1.625 -17.625 L 4.890625 -17.625 L 4.890625 -10.515625 L 11.1875 -10.515625 L 11.1875 -17.625 L 14.453125 -17.625 L 14.453125 0 L 11.1875 0 L 11.1875 -7.390625 L 4.890625 -7.390625 L 4.890625 0 Z M 1.625 0 "/></g></g></g><g fill="#ffffff" fill-opacity="1"><g transform="translate(227.678753, 97.411026)"><g><path d="M 1.28125 0 L 1.28125 -13.21875 L 4.453125 -13.21875 L 4.453125 0 Z M 1.28125 -14.640625 L 1.28125 -17.625 L 4.453125 -17.625 L 4.453125 -14.640625 Z M 1.28125 -14.640625 "/></g></g></g><g fill="#ffffff" fill-opacity="1"><g transform="translate(233.401806, 97.411026)"><g><path d="M 11.546875 -13.21875 L 14.578125 -13.21875 L 14.578125 -2.5 C 14.578125 -0.0820312 14.128906 1.703125 13.234375 2.859375 C 11.960938 4.460938 10.128906 5.265625 7.734375 5.265625 C 6.109375 5.265625 4.703125 4.894531 3.515625 4.15625 C 2.328125 3.414062 1.46875 2.390625 0.9375 1.078125 L 4.53125 1.078125 C 4.988281 1.585938 5.46875 1.945312 5.96875 2.15625 C 6.476562 2.375 7.101562 2.484375 7.84375 2.484375 C 10.195312 2.484375 11.429688 1.078125 11.546875 -1.734375 C 10.921875 -1.003906 10.269531 -0.476562 9.59375 -0.15625 C 8.925781 0.15625 8.128906 0.3125 7.203125 0.3125 C 5.304688 0.3125 3.75 -0.347656 2.53125 -1.671875 C 1.320312 -2.992188 0.71875 -4.671875 0.71875 -6.703125 C 0.71875 -8.660156 1.332031 -10.285156 2.5625 -11.578125 C 3.789062 -12.878906 5.347656 -13.53125 7.234375 -13.53125 C 9.140625 -13.53125 10.578125 -12.867188 11.546875 -11.546875 Z M 7.578125 -10.609375 C 6.472656 -10.609375 5.582031 -10.238281 4.90625 -9.5 C 4.238281 -8.757812 3.90625 -7.78125 3.90625 -6.5625 C 3.90625 -5.351562 4.242188 -4.390625 4.921875 -3.671875 C 5.597656 -2.953125 6.5 -2.59375 7.625 -2.59375 C 8.757812 -2.59375 9.671875 -2.953125 10.359375 -3.671875 C 11.054688 -4.398438 11.40625 -5.363281 11.40625 -6.5625 C 11.40625 -7.769531 11.050781 -8.742188 10.34375 -9.484375 C 9.632812 -10.234375 8.710938 -10.609375 7.578125 -10.609375 Z M 7.578125 -10.609375 "/></g></g></g><g fill="#ffffff" fill-opacity="1"><g transform="translate(249.140223, 97.411026)"><g><path d="M 1.28125 0 L 1.28125 -17.625 L 4.453125 -17.625 L 4.453125 -12.3125 C 5.378906 -13.132812 6.503906 -13.546875 7.828125 -13.546875 C 9.785156 -13.546875 11.21875 -12.847656 12.125 -11.453125 C 12.707031 -10.554688 13 -9.226562 13 -7.46875 L 13 0 L 9.828125 0 L 9.828125 -6.75 C 9.828125 -8.132812 9.628906 -9.125 9.234375 -9.71875 C 8.835938 -10.3125 8.175781 -10.609375 7.25 -10.609375 C 6.164062 -10.609375 5.382812 -10.1875 4.90625 -9.34375 C 4.601562 -8.8125 4.453125 -7.929688 4.453125 -6.703125 L 4.453125 0 Z M 1.28125 0 "/></g></g></g><g fill="#ffffff" fill-opacity="1"><g transform="translate(263.447878, 97.411026)"><g/></g></g><g fill="#ffffff" fill-opacity="1"><g transform="translate(274.202462, 97.411026)"><g><path d="M 0.328125 -5.03125 L 3.75 -5.03125 C 3.882812 -3.570312 4.675781 -2.84375 6.125 -2.84375 C 6.832031 -2.84375 7.40625 -3.039062 7.84375 -3.4375 C 8.289062 -3.832031 8.515625 -4.347656 8.515625 -4.984375 C 8.515625 -5.734375 8.242188 -6.332031 7.703125 -6.78125 C 7.304688 -7.082031 6.289062 -7.535156 4.65625 -8.140625 C 3.476562 -8.578125 2.570312 -9.207031 1.9375 -10.03125 C 1.300781 -10.851562 0.984375 -11.816406 0.984375 -12.921875 C 0.984375 -14.328125 1.484375 -15.515625 2.484375 -16.484375 C 3.484375 -17.453125 4.691406 -17.9375 6.109375 -17.9375 C 7.859375 -17.9375 9.234375 -17.304688 10.234375 -16.046875 C 10.898438 -15.242188 11.265625 -14.203125 11.328125 -12.921875 L 7.9375 -12.921875 C 7.894531 -13.523438 7.710938 -13.984375 7.390625 -14.296875 C 7.078125 -14.617188 6.640625 -14.78125 6.078125 -14.78125 C 5.535156 -14.78125 5.097656 -14.613281 4.765625 -14.28125 C 4.429688 -13.945312 4.265625 -13.519531 4.265625 -13 C 4.265625 -12.34375 4.59375 -11.8125 5.25 -11.40625 C 5.425781 -11.289062 6.078125 -11.023438 7.203125 -10.609375 C 8.617188 -10.085938 9.613281 -9.554688 10.1875 -9.015625 C 11.238281 -8.046875 11.765625 -6.820312 11.765625 -5.34375 C 11.765625 -3.75 11.222656 -2.40625 10.140625 -1.3125 C 9.054688 -0.226562 7.71875 0.3125 6.125 0.3125 C 5.1875 0.3125 4.304688 0.125 3.484375 -0.25 C 2.671875 -0.625 2.003906 -1.15625 1.484375 -1.84375 C 0.828125 -2.675781 0.441406 -3.738281 0.328125 -5.03125 Z M 0.328125 -5.03125 "/></g></g></g><g fill="#ffffff" fill-opacity="1"><g transform="translate(286.602433, 97.411026)"><g><path d="M 10.765625 -4.34375 L 14.328125 -4.34375 C 13.773438 -2.863281 12.929688 -1.71875 11.796875 -0.90625 C 10.660156 -0.09375 9.320312 0.3125 7.78125 0.3125 C 5.820312 0.3125 4.15625 -0.359375 2.78125 -1.703125 C 1.40625 -3.046875 0.71875 -4.679688 0.71875 -6.609375 C 0.71875 -8.546875 1.390625 -10.179688 2.734375 -11.515625 C 4.078125 -12.859375 5.726562 -13.53125 7.6875 -13.53125 C 9.59375 -13.53125 11.210938 -12.910156 12.546875 -11.671875 C 13.335938 -10.929688 13.929688 -9.972656 14.328125 -8.796875 L 10.765625 -8.796875 C 10.117188 -10.003906 9.09375 -10.609375 7.6875 -10.609375 C 6.582031 -10.609375 5.675781 -10.234375 4.96875 -9.484375 C 4.257812 -8.742188 3.90625 -7.789062 3.90625 -6.625 C 3.90625 -5.46875 4.269531 -4.503906 5 -3.734375 C 5.738281 -2.972656 6.65625 -2.59375 7.75 -2.59375 C 9.007812 -2.59375 10.015625 -3.175781 10.765625 -4.34375 Z M 10.765625 -4.34375 "/></g></g></g><g fill="#ffffff" fill-opacity="1"><g transform="translate(301.863929, 97.411026)"><g><path d="M 1.28125 0 L 1.28125 -17.625 L 4.453125 -17.625 L 4.453125 -12.3125 C 5.378906 -13.132812 6.503906 -13.546875 7.828125 -13.546875 C 9.785156 -13.546875 11.21875 -12.847656 12.125 -11.453125 C 12.707031 -10.554688 13 -9.226562 13 -7.46875 L 13 0 L 9.828125 0 L 9.828125 -6.75 C 9.828125 -8.132812 9.628906 -9.125 9.234375 -9.71875 C 8.835938 -10.3125 8.175781 -10.609375 7.25 -10.609375 C 6.164062 -10.609375 5.382812 -10.1875 4.90625 -9.34375 C 4.601562 -8.8125 4.453125 -7.929688 4.453125 -6.703125 L 4.453125 0 Z M 1.28125 0 "/></g></g></g><g fill="#ffffff" fill-opacity="1"><g transform="translate(316.171583, 97.411026)"><g><path d="M 7.703125 -13.53125 C 9.691406 -13.53125 11.363281 -12.851562 12.71875 -11.5 C 14.082031 -10.144531 14.765625 -8.484375 14.765625 -6.515625 C 14.765625 -4.648438 14.070312 -3.046875 12.6875 -1.703125 C 11.300781 -0.359375 9.648438 0.3125 7.734375 0.3125 C 5.785156 0.3125 4.128906 -0.363281 2.765625 -1.71875 C 1.398438 -3.070312 0.71875 -4.703125 0.71875 -6.609375 C 0.71875 -8.503906 1.398438 -10.128906 2.765625 -11.484375 C 4.128906 -12.847656 5.773438 -13.53125 7.703125 -13.53125 Z M 7.734375 -10.609375 C 6.691406 -10.609375 5.789062 -10.21875 5.03125 -9.4375 C 4.28125 -8.664062 3.90625 -7.738281 3.90625 -6.65625 C 3.90625 -5.53125 4.28125 -4.570312 5.03125 -3.78125 C 5.78125 -2.988281 6.6875 -2.59375 7.75 -2.59375 C 8.800781 -2.59375 9.695312 -2.984375 10.4375 -3.765625 C 11.1875 -4.546875 11.5625 -5.492188 11.5625 -6.609375 C 11.5625 -7.703125 11.1875 -8.640625 10.4375 -9.421875 C 9.695312 -10.210938 8.796875 -10.609375 7.734375 -10.609375 Z M 7.734375 -10.609375 "/></g></g></g><g fill="#ffffff" fill-opacity="1"><g transform="translate(331.43308, 97.411026)"><g><path d="M 7.703125 -13.53125 C 9.691406 -13.53125 11.363281 -12.851562 12.71875 -11.5 C 14.082031 -10.144531 14.765625 -8.484375 14.765625 -6.515625 C 14.765625 -4.648438 14.070312 -3.046875 12.6875 -1.703125 C 11.300781 -0.359375 9.648438 0.3125 7.734375 0.3125 C 5.785156 0.3125 4.128906 -0.363281 2.765625 -1.71875 C 1.398438 -3.070312 0.71875 -4.703125 0.71875 -6.609375 C 0.71875 -8.503906 1.398438 -10.128906 2.765625 -11.484375 C 4.128906 -12.847656 5.773438 -13.53125 7.703125 -13.53125 Z M 7.734375 -10.609375 C 6.691406 -10.609375 5.789062 -10.21875 5.03125 -9.4375 C 4.28125 -8.664062 3.90625 -7.738281 3.90625 -6.65625 C 3.90625 -5.53125 4.28125 -4.570312 5.03125 -3.78125 C 5.78125 -2.988281 6.6875 -2.59375 7.75 -2.59375 C 8.800781 -2.59375 9.695312 -2.984375 10.4375 -3.765625 C 11.1875 -4.546875 11.5625 -5.492188 11.5625 -6.609375 C 11.5625 -7.703125 11.1875 -8.640625 10.4375 -9.421875 C 9.695312 -10.210938 8.796875 -10.609375 7.734375 -10.609375 Z M 7.734375 -10.609375 "/></g></g></g><g fill="#ffffff" fill-opacity="1"><g transform="translate(346.694576, 97.411026)"><g><path d="M 1.28125 0 L 1.28125 -17.625 L 4.453125 -17.625 L 4.453125 0 Z M 1.28125 0 "/></g></g></g></svg>